<mxfile host="app.diagrams.net" modified="2020-06-16T14:13:49.646Z" agent="5.0 (X11; Linux x86_64) AppleWebKit/537.36 (KHTML, like Gecko) snap Chromium/83.0.4103.106 Chrome/83.0.4103.106 Safari/537.36" etag="LX5k1qjq0QuX-tkvDw4L" version="13.2.4" type="github">
  <diagram id="pIivQVcWycitdcD2H4Fz" name="Page-1">
    <mxGraphModel dx="584" dy="376" grid="1" gridSize="10" guides="1" tooltips="1" connect="1" arrows="1" fold="1" page="1" pageScale="3" pageWidth="827" pageHeight="1169" math="0" shadow="0" extFonts="Quicksand^https://fonts.googleapis.com/css?family=Quicksand|Gruppo^https://fonts.googleapis.com/css?family=Gruppo|Pompiere^https://fonts.googleapis.com/css?family=Pompiere">
      <root>
        <mxCell id="0" />
        <mxCell id="1" parent="0" />
        <mxCell id="mOfdOxVqDoghl0tVKRiO-1" value="PRODUCT" style="rounded=0;whiteSpace=wrap;html=1;shadow=1;" parent="1" vertex="1">
          <mxGeometry x="2107" y="602.9700000000001" width="100" height="30" as="geometry" />
        </mxCell>
        <mxCell id="mOfdOxVqDoghl0tVKRiO-10" value="EMPLOYEE" style="rounded=0;whiteSpace=wrap;html=1;shadow=1;" parent="1" vertex="1">
          <mxGeometry x="800" y="624.85" width="120" height="30" as="geometry" />
        </mxCell>
        <mxCell id="mOfdOxVqDoghl0tVKRiO-15" value="CUSTOMER" style="rounded=0;whiteSpace=wrap;html=1;shadow=1;" parent="1" vertex="1">
          <mxGeometry x="802" y="1061" width="115" height="30" as="geometry" />
        </mxCell>
        <mxCell id="mOfdOxVqDoghl0tVKRiO-17" value="M_O_R" style="ellipse;whiteSpace=wrap;html=1;shadow=1;" parent="1" vertex="1">
          <mxGeometry x="2065" y="481.2500000000001" width="80" height="34.62" as="geometry" />
        </mxCell>
        <mxCell id="mOfdOxVqDoghl0tVKRiO-21" value="" style="endArrow=none;html=1;entryX=0.25;entryY=0;entryDx=0;entryDy=0;exitX=1;exitY=1;exitDx=0;exitDy=0;shadow=0;" parent="1" source="mOfdOxVqDoghl0tVKRiO-17" target="mOfdOxVqDoghl0tVKRiO-1" edge="1">
          <mxGeometry width="50" height="50" relative="1" as="geometry">
            <mxPoint x="2044.5" y="612.8100000000003" as="sourcePoint" />
            <mxPoint x="2094.5" y="562.8100000000001" as="targetPoint" />
          </mxGeometry>
        </mxCell>
        <mxCell id="mOfdOxVqDoghl0tVKRiO-23" value="&lt;u&gt;ID&lt;/u&gt;" style="ellipse;whiteSpace=wrap;html=1;shadow=1;" parent="1" vertex="1">
          <mxGeometry x="1975" y="504.30000000000007" width="90" height="30" as="geometry" />
        </mxCell>
        <mxCell id="mOfdOxVqDoghl0tVKRiO-24" value="" style="endArrow=none;html=1;exitX=1;exitY=0.5;exitDx=0;exitDy=0;entryX=0;entryY=0;entryDx=0;entryDy=0;shadow=0;" parent="1" source="mOfdOxVqDoghl0tVKRiO-23" target="mOfdOxVqDoghl0tVKRiO-1" edge="1">
          <mxGeometry width="50" height="50" relative="1" as="geometry">
            <mxPoint x="2074.5" y="712.8100000000002" as="sourcePoint" />
            <mxPoint x="2124.5" y="662.8100000000002" as="targetPoint" />
          </mxGeometry>
        </mxCell>
        <mxCell id="mOfdOxVqDoghl0tVKRiO-26" value="Producer" style="ellipse;whiteSpace=wrap;html=1;shadow=1;" parent="1" vertex="1">
          <mxGeometry x="1942" y="700.8699999999999" width="90" height="30" as="geometry" />
        </mxCell>
        <mxCell id="mOfdOxVqDoghl0tVKRiO-27" value="" style="endArrow=none;html=1;exitX=1;exitY=0;exitDx=0;exitDy=0;entryX=0;entryY=1;entryDx=0;entryDy=0;shadow=0;" parent="1" source="mOfdOxVqDoghl0tVKRiO-26" target="mOfdOxVqDoghl0tVKRiO-1" edge="1">
          <mxGeometry width="50" height="50" relative="1" as="geometry">
            <mxPoint x="2514.5" y="692.8100000000002" as="sourcePoint" />
            <mxPoint x="2564.5" y="642.8100000000002" as="targetPoint" />
          </mxGeometry>
        </mxCell>
        <mxCell id="mOfdOxVqDoghl0tVKRiO-28" value="Price" style="ellipse;whiteSpace=wrap;html=1;shadow=1;" parent="1" vertex="1">
          <mxGeometry x="2189.77" y="706.02" width="86" height="30.5" as="geometry" />
        </mxCell>
        <mxCell id="mOfdOxVqDoghl0tVKRiO-29" value="Discount" style="ellipse;whiteSpace=wrap;html=1;shadow=1;" parent="1" vertex="1">
          <mxGeometry x="1942" y="548.9999999999998" width="70" height="29.67" as="geometry" />
        </mxCell>
        <mxCell id="mOfdOxVqDoghl0tVKRiO-30" value="" style="endArrow=none;html=1;exitX=0.5;exitY=0;exitDx=0;exitDy=0;entryX=0.889;entryY=1.062;entryDx=0;entryDy=0;shadow=0;entryPerimeter=0;" parent="1" source="mOfdOxVqDoghl0tVKRiO-28" target="mOfdOxVqDoghl0tVKRiO-1" edge="1">
          <mxGeometry width="50" height="50" relative="1" as="geometry">
            <mxPoint x="2514.5" y="692.8100000000002" as="sourcePoint" />
            <mxPoint x="2564.5" y="642.8100000000002" as="targetPoint" />
          </mxGeometry>
        </mxCell>
        <mxCell id="mOfdOxVqDoghl0tVKRiO-31" value="" style="endArrow=none;html=1;entryX=1;entryY=0.5;entryDx=0;entryDy=0;shadow=0;exitX=0;exitY=0.25;exitDx=0;exitDy=0;" parent="1" source="mOfdOxVqDoghl0tVKRiO-1" target="mOfdOxVqDoghl0tVKRiO-29" edge="1">
          <mxGeometry width="50" height="50" relative="1" as="geometry">
            <mxPoint x="2105.5" y="627.0600000000001" as="sourcePoint" />
            <mxPoint x="2274.5" y="602.8100000000003" as="targetPoint" />
          </mxGeometry>
        </mxCell>
        <mxCell id="mOfdOxVqDoghl0tVKRiO-33" value="Name" style="ellipse;whiteSpace=wrap;html=1;shadow=1;" parent="1" vertex="1">
          <mxGeometry x="300" y="664.02" width="85" height="27.1" as="geometry" />
        </mxCell>
        <mxCell id="mOfdOxVqDoghl0tVKRiO-34" value="Surname" style="ellipse;whiteSpace=wrap;html=1;shadow=1;" parent="1" vertex="1">
          <mxGeometry x="270.75" y="579" width="90" height="30" as="geometry" />
        </mxCell>
        <mxCell id="mOfdOxVqDoghl0tVKRiO-35" value="Fiscal_Code" style="ellipse;whiteSpace=wrap;html=1;shadow=1;fontStyle=4" parent="1" vertex="1">
          <mxGeometry x="720" y="577.3" width="110" height="30" as="geometry" />
        </mxCell>
        <mxCell id="mOfdOxVqDoghl0tVKRiO-36" value="Birth_Date" style="ellipse;whiteSpace=wrap;html=1;shadow=1;" parent="1" vertex="1">
          <mxGeometry x="900" y="577.3" width="130" height="30" as="geometry" />
        </mxCell>
        <mxCell id="mOfdOxVqDoghl0tVKRiO-45" value="" style="endArrow=none;html=1;exitX=1;exitY=1;exitDx=0;exitDy=0;entryX=0.25;entryY=0;entryDx=0;entryDy=0;shadow=0;" parent="1" source="mOfdOxVqDoghl0tVKRiO-35" target="mOfdOxVqDoghl0tVKRiO-10" edge="1">
          <mxGeometry width="50" height="50" relative="1" as="geometry">
            <mxPoint x="795" y="363.88" as="sourcePoint" />
            <mxPoint x="825" y="348.5" as="targetPoint" />
          </mxGeometry>
        </mxCell>
        <mxCell id="mOfdOxVqDoghl0tVKRiO-55" value="BOOKING" style="rounded=0;whiteSpace=wrap;html=1;shadow=1;" parent="1" vertex="1">
          <mxGeometry x="1514.5" y="832.5700000000002" width="130" height="30" as="geometry" />
        </mxCell>
        <mxCell id="mOfdOxVqDoghl0tVKRiO-60" value="Email" style="ellipse;whiteSpace=wrap;html=1;shadow=1;fontStyle=4" parent="1" vertex="1">
          <mxGeometry x="200" y="549" width="89.25" height="30" as="geometry" />
        </mxCell>
        <mxCell id="mOfdOxVqDoghl0tVKRiO-61" value="Phone" style="ellipse;whiteSpace=wrap;html=1;shadow=1;fontStyle=0" parent="1" vertex="1">
          <mxGeometry x="44.5" y="652.67" width="95.5" height="32.47" as="geometry" />
        </mxCell>
        <mxCell id="mOfdOxVqDoghl0tVKRiO-65" value="Address" style="ellipse;whiteSpace=wrap;html=1;shadow=1;" parent="1" vertex="1">
          <mxGeometry x="44.5" y="607.3000000000001" width="90" height="30.77" as="geometry" />
        </mxCell>
        <mxCell id="mOfdOxVqDoghl0tVKRiO-93" value="STRUCTURE" style="rounded=0;whiteSpace=wrap;html=1;shadow=1;" parent="1" vertex="1">
          <mxGeometry x="1535" y="227.37" width="90" height="36.67" as="geometry" />
        </mxCell>
        <mxCell id="mOfdOxVqDoghl0tVKRiO-94" value="Address" style="ellipse;whiteSpace=wrap;html=1;shadow=1;" parent="1" vertex="1">
          <mxGeometry x="1480" y="159.43" width="95" height="24.5" as="geometry" />
        </mxCell>
        <mxCell id="mOfdOxVqDoghl0tVKRiO-95" value="Phone" style="ellipse;whiteSpace=wrap;html=1;shadow=1;fontStyle=0" parent="1" vertex="1">
          <mxGeometry x="1460" y="294.17" width="93.75" height="24.96" as="geometry" />
        </mxCell>
        <mxCell id="mOfdOxVqDoghl0tVKRiO-100" value="" style="endArrow=none;html=1;entryX=0.127;entryY=1.008;entryDx=0;entryDy=0;shadow=0;entryPerimeter=0;" parent="1" source="mOfdOxVqDoghl0tVKRiO-95" target="mOfdOxVqDoghl0tVKRiO-93" edge="1">
          <mxGeometry width="50" height="50" relative="1" as="geometry">
            <mxPoint x="1475" y="207.37" as="sourcePoint" />
            <mxPoint x="1525" y="157.37" as="targetPoint" />
          </mxGeometry>
        </mxCell>
        <mxCell id="mOfdOxVqDoghl0tVKRiO-101" value="" style="endArrow=none;html=1;exitX=0.25;exitY=0;exitDx=0;exitDy=0;entryX=0.5;entryY=1;entryDx=0;entryDy=0;shadow=0;" parent="1" source="mOfdOxVqDoghl0tVKRiO-93" target="mOfdOxVqDoghl0tVKRiO-94" edge="1">
          <mxGeometry width="50" height="50" relative="1" as="geometry">
            <mxPoint x="1605" y="217.37" as="sourcePoint" />
            <mxPoint x="1655" y="167.37" as="targetPoint" />
          </mxGeometry>
        </mxCell>
        <mxCell id="z-NwZpaRfGPs4gkHxWXv-4" value="ID" style="ellipse;whiteSpace=wrap;html=1;fontStyle=4;shadow=1;" parent="1" vertex="1">
          <mxGeometry x="1432" y="781.82" width="82.5" height="30" as="geometry" />
        </mxCell>
        <mxCell id="z-NwZpaRfGPs4gkHxWXv-5" value="Date" style="ellipse;whiteSpace=wrap;html=1;shadow=1;" parent="1" vertex="1">
          <mxGeometry x="1466.5" y="730.87" width="73" height="30" as="geometry" />
        </mxCell>
        <mxCell id="z-NwZpaRfGPs4gkHxWXv-6" value="Hour_Start" style="ellipse;whiteSpace=wrap;html=1;shadow=1;" parent="1" vertex="1">
          <mxGeometry x="1609.75" y="728.91" width="80" height="30" as="geometry" />
        </mxCell>
        <mxCell id="z-NwZpaRfGPs4gkHxWXv-7" value="" style="endArrow=none;html=1;entryX=0.122;entryY=-0.002;entryDx=0;entryDy=0;exitX=1;exitY=1;exitDx=0;exitDy=0;shadow=0;entryPerimeter=0;" parent="1" source="z-NwZpaRfGPs4gkHxWXv-4" target="mOfdOxVqDoghl0tVKRiO-55" edge="1">
          <mxGeometry width="50" height="50" relative="1" as="geometry">
            <mxPoint x="1837.25" y="942.9200000000001" as="sourcePoint" />
            <mxPoint x="1887.25" y="892.9200000000001" as="targetPoint" />
          </mxGeometry>
        </mxCell>
        <mxCell id="z-NwZpaRfGPs4gkHxWXv-8" value="" style="endArrow=none;html=1;exitX=1;exitY=1;exitDx=0;exitDy=0;shadow=0;entryX=0.25;entryY=0;entryDx=0;entryDy=0;" parent="1" source="z-NwZpaRfGPs4gkHxWXv-5" target="mOfdOxVqDoghl0tVKRiO-55" edge="1">
          <mxGeometry width="50" height="50" relative="1" as="geometry">
            <mxPoint x="1917.25" y="930.9200000000001" as="sourcePoint" />
            <mxPoint x="1967.25" y="880.9200000000001" as="targetPoint" />
          </mxGeometry>
        </mxCell>
        <mxCell id="z-NwZpaRfGPs4gkHxWXv-10" value="" style="endArrow=none;html=1;exitX=0;exitY=1;exitDx=0;exitDy=0;shadow=0;entryX=0.635;entryY=-0.035;entryDx=0;entryDy=0;entryPerimeter=0;" parent="1" source="z-NwZpaRfGPs4gkHxWXv-6" target="mOfdOxVqDoghl0tVKRiO-55" edge="1">
          <mxGeometry width="50" height="50" relative="1" as="geometry">
            <mxPoint x="2097.25" y="890.9200000000001" as="sourcePoint" />
            <mxPoint x="2147.25" y="840.9200000000001" as="targetPoint" />
          </mxGeometry>
        </mxCell>
        <mxCell id="z-NwZpaRfGPs4gkHxWXv-11" value="WORK_FOR" style="rhombus;whiteSpace=wrap;html=1;shadow=1;" parent="1" vertex="1">
          <mxGeometry x="1161.5" y="364.32" width="117" height="116.9289" as="geometry" />
        </mxCell>
        <mxCell id="z-NwZpaRfGPs4gkHxWXv-17" value="SUPPLY" style="rhombus;whiteSpace=wrap;html=1;shadow=1;" parent="1" vertex="1">
          <mxGeometry x="1539.5" y="572.5" width="80" height="80" as="geometry" />
        </mxCell>
        <mxCell id="z-NwZpaRfGPs4gkHxWXv-39" value="MAKES" style="rhombus;whiteSpace=wrap;html=1;shadow=1;" parent="1" vertex="1">
          <mxGeometry x="819.5" y="807.3700000000001" width="80" height="80" as="geometry" />
        </mxCell>
        <mxCell id="z-NwZpaRfGPs4gkHxWXv-70" value="Description" style="ellipse;whiteSpace=wrap;html=1;shadow=1;" parent="1" vertex="1">
          <mxGeometry x="2189.77" y="474.7900000000001" width="96" height="29.51" as="geometry" />
        </mxCell>
        <mxCell id="z-NwZpaRfGPs4gkHxWXv-71" value="" style="endArrow=none;html=1;entryX=0.5;entryY=1;entryDx=0;entryDy=0;exitX=0.625;exitY=0.045;exitDx=0;exitDy=0;shadow=0;exitPerimeter=0;" parent="1" source="mOfdOxVqDoghl0tVKRiO-1" target="z-NwZpaRfGPs4gkHxWXv-70" edge="1">
          <mxGeometry width="50" height="50" relative="1" as="geometry">
            <mxPoint x="2129.5" y="602.8100000000001" as="sourcePoint" />
            <mxPoint x="2134.5" y="562.8100000000001" as="targetPoint" />
          </mxGeometry>
        </mxCell>
        <mxCell id="z-NwZpaRfGPs4gkHxWXv-76" value="ID" style="ellipse;whiteSpace=wrap;html=1;fontStyle=4;shadow=1;" parent="1" vertex="1">
          <mxGeometry x="1426.5" y="199.15" width="90.25" height="27.13" as="geometry" />
        </mxCell>
        <mxCell id="z-NwZpaRfGPs4gkHxWXv-77" value="" style="endArrow=none;html=1;entryX=1;entryY=1;entryDx=0;entryDy=0;exitX=0;exitY=0;exitDx=0;exitDy=0;shadow=0;" parent="1" source="mOfdOxVqDoghl0tVKRiO-93" target="z-NwZpaRfGPs4gkHxWXv-76" edge="1">
          <mxGeometry width="50" height="50" relative="1" as="geometry">
            <mxPoint x="1475" y="252.37" as="sourcePoint" />
            <mxPoint x="1525" y="202.37" as="targetPoint" />
          </mxGeometry>
        </mxCell>
        <mxCell id="z-NwZpaRfGPs4gkHxWXv-78" value="ADMINISTERS" style="rhombus;whiteSpace=wrap;html=1;shadow=1;" parent="1" vertex="1">
          <mxGeometry x="1161.57" y="187.24" width="116.9289" height="116.9289" as="geometry" />
        </mxCell>
        <mxCell id="06iZtVcr8NPvHx3JyrQN-2" value="Name" style="ellipse;whiteSpace=wrap;html=1;shadow=1;" parent="1" vertex="1">
          <mxGeometry x="1586.75" y="159.43" width="85" height="22.25" as="geometry" />
        </mxCell>
        <mxCell id="06iZtVcr8NPvHx3JyrQN-3" value="" style="endArrow=none;html=1;entryX=0.461;entryY=1.058;entryDx=0;entryDy=0;entryPerimeter=0;exitX=0.75;exitY=0;exitDx=0;exitDy=0;shadow=0;" parent="1" source="mOfdOxVqDoghl0tVKRiO-93" target="06iZtVcr8NPvHx3JyrQN-2" edge="1">
          <mxGeometry width="50" height="50" relative="1" as="geometry">
            <mxPoint x="1595" y="272.37" as="sourcePoint" />
            <mxPoint x="1645" y="222.37" as="targetPoint" />
          </mxGeometry>
        </mxCell>
        <mxCell id="06iZtVcr8NPvHx3JyrQN-11" value="&lt;u&gt;ID&lt;/u&gt;" style="ellipse;whiteSpace=wrap;html=1;shadow=1;" parent="1" vertex="1">
          <mxGeometry x="270.75" y="700.87" width="69.25" height="27.1" as="geometry" />
        </mxCell>
        <mxCell id="z-IdzefdN8h7sOJLDqcr-3" value="Name" style="ellipse;whiteSpace=wrap;html=1;shadow=1;" parent="1" vertex="1">
          <mxGeometry x="2303.25" y="556.24" width="68.5" height="27.12" as="geometry" />
        </mxCell>
        <mxCell id="z-IdzefdN8h7sOJLDqcr-4" value="" style="endArrow=none;html=1;exitX=1;exitY=0;exitDx=0;exitDy=0;entryX=0;entryY=1;entryDx=0;entryDy=0;shadow=0;" parent="1" source="mOfdOxVqDoghl0tVKRiO-1" target="z-IdzefdN8h7sOJLDqcr-3" edge="1">
          <mxGeometry width="50" height="50" relative="1" as="geometry">
            <mxPoint x="2234.5" y="632.81" as="sourcePoint" />
            <mxPoint x="2284.5" y="582.8100000000001" as="targetPoint" />
          </mxGeometry>
        </mxCell>
        <mxCell id="7vURNP84gYrgIZNCSmpS-34" value="USER" style="rounded=0;whiteSpace=wrap;html=1;shadow=1;" parent="1" vertex="1">
          <mxGeometry x="180.75" y="624.67" width="90" height="28" as="geometry" />
        </mxCell>
        <mxCell id="7vURNP84gYrgIZNCSmpS-39" value="" style="endArrow=none;html=1;entryX=0.5;entryY=1;entryDx=0;entryDy=0;exitX=0.5;exitY=0;exitDx=0;exitDy=0;" parent="1" source="7vURNP84gYrgIZNCSmpS-34" target="mOfdOxVqDoghl0tVKRiO-60" edge="1">
          <mxGeometry width="50" height="50" relative="1" as="geometry">
            <mxPoint x="232" y="622.3" as="sourcePoint" />
            <mxPoint x="272" y="582.3" as="targetPoint" />
          </mxGeometry>
        </mxCell>
        <mxCell id="7vURNP84gYrgIZNCSmpS-40" value="" style="endArrow=none;html=1;entryX=0;entryY=1;entryDx=0;entryDy=0;exitX=0.75;exitY=0;exitDx=0;exitDy=0;" parent="1" source="7vURNP84gYrgIZNCSmpS-34" target="mOfdOxVqDoghl0tVKRiO-34" edge="1">
          <mxGeometry width="50" height="50" relative="1" as="geometry">
            <mxPoint x="235.75" y="634.67" as="sourcePoint" />
            <mxPoint x="277" y="574.67" as="targetPoint" />
          </mxGeometry>
        </mxCell>
        <mxCell id="7vURNP84gYrgIZNCSmpS-41" value="" style="endArrow=none;html=1;exitX=0;exitY=0.5;exitDx=0;exitDy=0;" parent="1" source="7vURNP84gYrgIZNCSmpS-34" target="mOfdOxVqDoghl0tVKRiO-65" edge="1">
          <mxGeometry width="50" height="50" relative="1" as="geometry">
            <mxPoint x="245.75" y="644.67" as="sourcePoint" />
            <mxPoint x="287" y="584.67" as="targetPoint" />
          </mxGeometry>
        </mxCell>
        <mxCell id="7vURNP84gYrgIZNCSmpS-42" value="" style="endArrow=none;html=1;exitX=0;exitY=1;exitDx=0;exitDy=0;entryX=0.955;entryY=0.254;entryDx=0;entryDy=0;entryPerimeter=0;" parent="1" source="7vURNP84gYrgIZNCSmpS-34" target="mOfdOxVqDoghl0tVKRiO-61" edge="1">
          <mxGeometry width="50" height="50" relative="1" as="geometry">
            <mxPoint x="255.75" y="654.67" as="sourcePoint" />
            <mxPoint x="107" y="664" as="targetPoint" />
          </mxGeometry>
        </mxCell>
        <mxCell id="7vURNP84gYrgIZNCSmpS-43" value="" style="endArrow=none;html=1;entryX=0;entryY=1;entryDx=0;entryDy=0;exitX=0.75;exitY=0;exitDx=0;exitDy=0;" parent="1" source="mOfdOxVqDoghl0tVKRiO-10" target="mOfdOxVqDoghl0tVKRiO-36" edge="1">
          <mxGeometry width="50" height="50" relative="1" as="geometry">
            <mxPoint x="343.75" y="708.5" as="sourcePoint" />
            <mxPoint x="385" y="648.5" as="targetPoint" />
          </mxGeometry>
        </mxCell>
        <mxCell id="7vURNP84gYrgIZNCSmpS-44" value="" style="endArrow=none;html=1;entryX=0.338;entryY=0.017;entryDx=0;entryDy=0;exitX=0.75;exitY=1;exitDx=0;exitDy=0;entryPerimeter=0;" parent="1" source="7vURNP84gYrgIZNCSmpS-34" target="06iZtVcr8NPvHx3JyrQN-11" edge="1">
          <mxGeometry width="50" height="50" relative="1" as="geometry">
            <mxPoint x="275.75" y="674.67" as="sourcePoint" />
            <mxPoint x="317" y="614.67" as="targetPoint" />
          </mxGeometry>
        </mxCell>
        <mxCell id="7vURNP84gYrgIZNCSmpS-45" value="" style="endArrow=none;html=1;entryX=0;entryY=0;entryDx=0;entryDy=0;exitX=1;exitY=1;exitDx=0;exitDy=0;" parent="1" source="7vURNP84gYrgIZNCSmpS-34" target="mOfdOxVqDoghl0tVKRiO-33" edge="1">
          <mxGeometry width="50" height="50" relative="1" as="geometry">
            <mxPoint x="285.75" y="684.67" as="sourcePoint" />
            <mxPoint x="327" y="624.67" as="targetPoint" />
          </mxGeometry>
        </mxCell>
        <mxCell id="7vURNP84gYrgIZNCSmpS-46" value="d" style="ellipse;whiteSpace=wrap;html=1;aspect=fixed;shadow=1;" parent="1" vertex="1">
          <mxGeometry x="510" y="615.67" width="48.35" height="48.35" as="geometry" />
        </mxCell>
        <mxCell id="7vURNP84gYrgIZNCSmpS-48" value="" style="shape=link;html=1;entryX=0;entryY=0.5;entryDx=0;entryDy=0;exitX=1;exitY=0.5;exitDx=0;exitDy=0;" parent="1" source="7vURNP84gYrgIZNCSmpS-34" target="7vURNP84gYrgIZNCSmpS-46" edge="1">
          <mxGeometry width="50" height="50" relative="1" as="geometry">
            <mxPoint x="450" y="772.3" as="sourcePoint" />
            <mxPoint x="500" y="722.3" as="targetPoint" />
          </mxGeometry>
        </mxCell>
        <mxCell id="7vURNP84gYrgIZNCSmpS-49" value="" style="endArrow=none;html=1;entryX=0;entryY=0.5;entryDx=0;entryDy=0;" parent="1" source="7vURNP84gYrgIZNCSmpS-52" target="mOfdOxVqDoghl0tVKRiO-10" edge="1">
          <mxGeometry width="50" height="50" relative="1" as="geometry">
            <mxPoint x="750" y="470" as="sourcePoint" />
            <mxPoint x="920" y="510" as="targetPoint" />
          </mxGeometry>
        </mxCell>
        <mxCell id="7vURNP84gYrgIZNCSmpS-51" value="" style="endArrow=none;html=1;entryX=0.5;entryY=1;entryDx=0;entryDy=0;exitX=0.5;exitY=1;exitDx=0;exitDy=0;" parent="1" source="7vURNP84gYrgIZNCSmpS-55" target="7vURNP84gYrgIZNCSmpS-46" edge="1">
          <mxGeometry width="50" height="50" relative="1" as="geometry">
            <mxPoint x="775" y="1070" as="sourcePoint" />
            <mxPoint x="1200" y="680" as="targetPoint" />
          </mxGeometry>
        </mxCell>
        <mxCell id="7vURNP84gYrgIZNCSmpS-52" value="&lt;p&gt;&lt;span style=&quot;font-size: 60px&quot;&gt;U&lt;/span&gt;&lt;/p&gt;" style="text;html=1;strokeColor=none;fillColor=none;align=center;verticalAlign=middle;whiteSpace=wrap;rounded=0;shadow=0;rotation=-90;fontFamily=Gruppo;" parent="1" vertex="1">
          <mxGeometry x="670" y="629.85" width="40" height="20" as="geometry" />
        </mxCell>
        <mxCell id="7vURNP84gYrgIZNCSmpS-54" value="" style="endArrow=none;html=1;entryX=0.5;entryY=1;entryDx=0;entryDy=0;" parent="1" target="7vURNP84gYrgIZNCSmpS-52" edge="1">
          <mxGeometry width="50" height="50" relative="1" as="geometry">
            <mxPoint x="560" y="640" as="sourcePoint" />
            <mxPoint x="650" y="640" as="targetPoint" />
          </mxGeometry>
        </mxCell>
        <mxCell id="7vURNP84gYrgIZNCSmpS-55" value="&lt;p&gt;&lt;span style=&quot;font-size: 60px&quot;&gt;U&lt;/span&gt;&lt;/p&gt;" style="text;html=1;strokeColor=none;fillColor=none;align=center;verticalAlign=middle;whiteSpace=wrap;rounded=0;shadow=0;rotation=326;fontFamily=Gruppo;" parent="1" vertex="1">
          <mxGeometry x="630" y="820.3700000000001" width="40" height="20" as="geometry" />
        </mxCell>
        <mxCell id="7vURNP84gYrgIZNCSmpS-56" value="" style="endArrow=none;html=1;exitX=0;exitY=0.5;exitDx=0;exitDy=0;entryX=0.5;entryY=1;entryDx=0;entryDy=0;" parent="1" source="mOfdOxVqDoghl0tVKRiO-15" target="7vURNP84gYrgIZNCSmpS-55" edge="1">
          <mxGeometry width="50" height="50" relative="1" as="geometry">
            <mxPoint x="775" y="1069.9999999999998" as="sourcePoint" />
            <mxPoint x="680.7279220613527" y="652.3779220613528" as="targetPoint" />
          </mxGeometry>
        </mxCell>
        <mxCell id="7vURNP84gYrgIZNCSmpS-59" value="Password" style="ellipse;whiteSpace=wrap;html=1;shadow=1;" parent="1" vertex="1">
          <mxGeometry x="170" y="711.9" width="90" height="31" as="geometry" />
        </mxCell>
        <mxCell id="7vURNP84gYrgIZNCSmpS-60" value="" style="endArrow=none;html=1;exitX=0.5;exitY=0;exitDx=0;exitDy=0;entryX=0.5;entryY=1;entryDx=0;entryDy=0;" parent="1" source="7vURNP84gYrgIZNCSmpS-59" target="7vURNP84gYrgIZNCSmpS-34" edge="1">
          <mxGeometry width="50" height="50" relative="1" as="geometry">
            <mxPoint x="272" y="679.02" as="sourcePoint" />
            <mxPoint x="322" y="629.02" as="targetPoint" />
          </mxGeometry>
        </mxCell>
        <mxCell id="7vURNP84gYrgIZNCSmpS-65" value="ADMIN" style="rounded=0;whiteSpace=wrap;html=1;shadow=1;" parent="1" vertex="1">
          <mxGeometry x="797" y="230.70000000000002" width="120" height="30" as="geometry" />
        </mxCell>
        <mxCell id="7vURNP84gYrgIZNCSmpS-74" value="&lt;p style=&quot;font-size: 52px;&quot;&gt;&lt;span style=&quot;font-size: 52px;&quot;&gt;U&lt;/span&gt;&lt;/p&gt;" style="text;html=1;strokeColor=none;fillColor=none;align=center;verticalAlign=middle;whiteSpace=wrap;rounded=0;shadow=0;rotation=216;fontFamily=Gruppo;fontStyle=0;FType=g;fontSize=52;" parent="1" vertex="1">
          <mxGeometry x="630" y="442.37" width="40" height="20" as="geometry" />
        </mxCell>
        <mxCell id="7vURNP84gYrgIZNCSmpS-75" value="" style="endArrow=none;html=1;exitX=0.5;exitY=0;exitDx=0;exitDy=0;entryX=0.5;entryY=1;entryDx=0;entryDy=0;" parent="1" source="7vURNP84gYrgIZNCSmpS-46" target="7vURNP84gYrgIZNCSmpS-74" edge="1">
          <mxGeometry width="50" height="50" relative="1" as="geometry">
            <mxPoint x="620" y="560" as="sourcePoint" />
            <mxPoint x="670" y="510" as="targetPoint" />
          </mxGeometry>
        </mxCell>
        <mxCell id="7vURNP84gYrgIZNCSmpS-76" value="" style="endArrow=none;html=1;exitX=0.5;exitY=1;exitDx=0;exitDy=0;entryX=0;entryY=0.5;entryDx=0;entryDy=0;" parent="1" source="7vURNP84gYrgIZNCSmpS-74" target="7vURNP84gYrgIZNCSmpS-65" edge="1">
          <mxGeometry width="50" height="50" relative="1" as="geometry">
            <mxPoint x="640" y="330" as="sourcePoint" />
            <mxPoint x="690" y="280" as="targetPoint" />
            <Array as="points" />
          </mxGeometry>
        </mxCell>
        <mxCell id="vk8bfzoFHFMnoET7GKUU-8" value="" style="endArrow=none;html=1;rounded=0;align=left;exitX=0.5;exitY=0;exitDx=0;exitDy=0;entryX=0.5;entryY=1;entryDx=0;entryDy=0;" parent="1" source="mOfdOxVqDoghl0tVKRiO-15" target="z-NwZpaRfGPs4gkHxWXv-39" edge="1">
          <mxGeometry relative="1" as="geometry">
            <mxPoint x="935" y="1076" as="sourcePoint" />
            <mxPoint x="1588" y="990" as="targetPoint" />
            <Array as="points" />
          </mxGeometry>
        </mxCell>
        <mxCell id="vk8bfzoFHFMnoET7GKUU-9" value="1&amp;nbsp;&amp;nbsp;" style="resizable=0;html=1;align=right;verticalAlign=top;" parent="vk8bfzoFHFMnoET7GKUU-8" connectable="0" vertex="1">
          <mxGeometry x="1" relative="1" as="geometry" />
        </mxCell>
        <mxCell id="vk8bfzoFHFMnoET7GKUU-10" value="" style="shape=link;html=1;rounded=0;exitX=0;exitY=0.5;exitDx=0;exitDy=0;entryX=1;entryY=0.5;entryDx=0;entryDy=0;" parent="1" source="mOfdOxVqDoghl0tVKRiO-55" target="z-NwZpaRfGPs4gkHxWXv-39" edge="1">
          <mxGeometry relative="1" as="geometry">
            <mxPoint x="1723" y="871.9999999999998" as="sourcePoint" />
            <mxPoint x="1581.5" y="871.9999999999998" as="targetPoint" />
            <Array as="points" />
          </mxGeometry>
        </mxCell>
        <mxCell id="vk8bfzoFHFMnoET7GKUU-11" value="1" style="resizable=0;html=1;align=left;verticalAlign=bottom;horizontal=1;" parent="vk8bfzoFHFMnoET7GKUU-10" connectable="0" vertex="1">
          <mxGeometry x="1" relative="1" as="geometry" />
        </mxCell>
        <mxCell id="vk8bfzoFHFMnoET7GKUU-21" value="" style="shape=link;html=1;rounded=0;align=left;entryX=0;entryY=0.5;entryDx=0;entryDy=0;exitX=0.5;exitY=0;exitDx=0;exitDy=0;" parent="1" source="mOfdOxVqDoghl0tVKRiO-10" target="z-NwZpaRfGPs4gkHxWXv-11" edge="1">
          <mxGeometry relative="1" as="geometry">
            <mxPoint x="860" y="559.9599999999999" as="sourcePoint" />
            <mxPoint x="1168" y="359.11" as="targetPoint" />
            <Array as="points">
              <mxPoint x="860" y="423" />
            </Array>
          </mxGeometry>
        </mxCell>
        <mxCell id="vk8bfzoFHFMnoET7GKUU-22" value="N" style="resizable=0;html=1;align=right;verticalAlign=bottom;" parent="vk8bfzoFHFMnoET7GKUU-21" connectable="0" vertex="1">
          <mxGeometry x="1" relative="1" as="geometry" />
        </mxCell>
        <mxCell id="vk8bfzoFHFMnoET7GKUU-24" value="" style="endArrow=none;html=1;rounded=0;align=left;exitX=0.25;exitY=1;exitDx=0;exitDy=0;entryX=1;entryY=0.5;entryDx=0;entryDy=0;" parent="1" source="mOfdOxVqDoghl0tVKRiO-93" target="z-NwZpaRfGPs4gkHxWXv-11" edge="1">
          <mxGeometry relative="1" as="geometry">
            <mxPoint x="1557.5" y="199.14999999999998" as="sourcePoint" />
            <mxPoint x="1530" y="345.11" as="targetPoint" />
            <Array as="points">
              <mxPoint x="1558" y="423" />
            </Array>
          </mxGeometry>
        </mxCell>
        <mxCell id="vk8bfzoFHFMnoET7GKUU-25" value="1" style="resizable=0;html=1;align=left;verticalAlign=bottom;" parent="vk8bfzoFHFMnoET7GKUU-24" connectable="0" vertex="1">
          <mxGeometry x="1" relative="1" as="geometry" />
        </mxCell>
        <mxCell id="vk8bfzoFHFMnoET7GKUU-26" value="" style="shape=link;html=1;rounded=0;align=left;entryX=0.5;entryY=1;entryDx=0;entryDy=0;exitX=0.5;exitY=0;exitDx=0;exitDy=0;" parent="1" source="mOfdOxVqDoghl0tVKRiO-55" target="z-NwZpaRfGPs4gkHxWXv-17" edge="1">
          <mxGeometry relative="1" as="geometry">
            <mxPoint x="1968" y="660.2" as="sourcePoint" />
            <mxPoint x="2128" y="660.2" as="targetPoint" />
          </mxGeometry>
        </mxCell>
        <mxCell id="vk8bfzoFHFMnoET7GKUU-27" value="N&amp;nbsp;&amp;nbsp;" style="resizable=0;html=1;align=right;verticalAlign=top;" parent="vk8bfzoFHFMnoET7GKUU-26" connectable="0" vertex="1">
          <mxGeometry x="1" relative="1" as="geometry" />
        </mxCell>
        <mxCell id="vk8bfzoFHFMnoET7GKUU-28" value="" style="html=1;rounded=0;align=left;exitX=0.5;exitY=1;exitDx=0;exitDy=0;endArrow=none;endFill=0;entryX=0.5;entryY=0;entryDx=0;entryDy=0;" parent="1" source="mOfdOxVqDoghl0tVKRiO-93" target="z-NwZpaRfGPs4gkHxWXv-17" edge="1">
          <mxGeometry relative="1" as="geometry">
            <mxPoint x="1590" y="490" as="sourcePoint" />
            <mxPoint x="1243" y="570" as="targetPoint" />
            <Array as="points" />
          </mxGeometry>
        </mxCell>
        <mxCell id="vk8bfzoFHFMnoET7GKUU-29" value="1&amp;nbsp;&amp;nbsp;" style="resizable=0;html=1;align=right;verticalAlign=bottom;" parent="vk8bfzoFHFMnoET7GKUU-28" connectable="0" vertex="1">
          <mxGeometry x="1" relative="1" as="geometry" />
        </mxCell>
        <mxCell id="vk8bfzoFHFMnoET7GKUU-34" value="" style="html=1;rounded=0;align=left;entryX=1;entryY=0.5;entryDx=0;entryDy=0;exitX=0;exitY=0.5;exitDx=0;exitDy=0;endArrow=none;endFill=0;" parent="1" source="mOfdOxVqDoghl0tVKRiO-93" target="z-NwZpaRfGPs4gkHxWXv-78" edge="1">
          <mxGeometry relative="1" as="geometry">
            <mxPoint x="1330" y="240" as="sourcePoint" />
            <mxPoint x="1490" y="240" as="targetPoint" />
          </mxGeometry>
        </mxCell>
        <mxCell id="vk8bfzoFHFMnoET7GKUU-35" value="1" style="resizable=0;html=1;align=left;verticalAlign=bottom;" parent="vk8bfzoFHFMnoET7GKUU-34" connectable="0" vertex="1">
          <mxGeometry x="1" relative="1" as="geometry" />
        </mxCell>
        <mxCell id="-Jq1AfKjN5yx9KIEYnPa-1" value="&quot;Customer&quot;" style="text;html=1;strokeColor=none;fillColor=none;align=center;verticalAlign=middle;whiteSpace=wrap;rounded=0;rotation=55;" parent="1" vertex="1">
          <mxGeometry x="570" y="758.91" width="40" height="20" as="geometry" />
        </mxCell>
        <mxCell id="-Jq1AfKjN5yx9KIEYnPa-2" value="&quot;Employee&quot;" style="text;html=1;strokeColor=none;fillColor=none;align=center;verticalAlign=middle;whiteSpace=wrap;rounded=0;" parent="1" vertex="1">
          <mxGeometry x="598.35" y="616.04" width="40" height="20" as="geometry" />
        </mxCell>
        <mxCell id="-Jq1AfKjN5yx9KIEYnPa-4" value="&quot;Admin&quot;" style="text;html=1;strokeColor=none;fillColor=none;align=center;verticalAlign=middle;whiteSpace=wrap;rounded=0;rotation=-55;" parent="1" vertex="1">
          <mxGeometry x="570" y="504.3" width="40" height="20" as="geometry" />
        </mxCell>
        <mxCell id="-Jq1AfKjN5yx9KIEYnPa-5" value="&quot;User_Type&quot;" style="text;html=1;strokeColor=none;fillColor=none;align=center;verticalAlign=middle;whiteSpace=wrap;rounded=0;" parent="1" vertex="1">
          <mxGeometry x="430" y="614.3" width="40" height="20" as="geometry" />
        </mxCell>
        <mxCell id="-Jq1AfKjN5yx9KIEYnPa-7" value="Birth_Date" style="ellipse;whiteSpace=wrap;html=1;shadow=1;" parent="1" vertex="1">
          <mxGeometry x="710" y="183.92999999999995" width="130" height="30" as="geometry" />
        </mxCell>
        <mxCell id="-Jq1AfKjN5yx9KIEYnPa-9" value="" style="endArrow=none;html=1;entryX=0.5;entryY=1;entryDx=0;entryDy=0;exitX=0;exitY=0;exitDx=0;exitDy=0;" parent="1" source="7vURNP84gYrgIZNCSmpS-65" target="-Jq1AfKjN5yx9KIEYnPa-7" edge="1">
          <mxGeometry width="50" height="50" relative="1" as="geometry">
            <mxPoint x="550" y="260" as="sourcePoint" />
            <mxPoint x="600" y="210" as="targetPoint" />
          </mxGeometry>
        </mxCell>
        <mxCell id="-Jq1AfKjN5yx9KIEYnPa-10" value="Fiscal_Code" style="ellipse;whiteSpace=wrap;html=1;shadow=1;fontStyle=4" parent="1" vertex="1">
          <mxGeometry x="900" y="183.92999999999995" width="110" height="30" as="geometry" />
        </mxCell>
        <mxCell id="-Jq1AfKjN5yx9KIEYnPa-11" value="" style="endArrow=none;html=1;entryX=0.5;entryY=1;entryDx=0;entryDy=0;exitX=1;exitY=0;exitDx=0;exitDy=0;" parent="1" source="7vURNP84gYrgIZNCSmpS-65" target="-Jq1AfKjN5yx9KIEYnPa-10" edge="1">
          <mxGeometry width="50" height="50" relative="1" as="geometry">
            <mxPoint x="940" y="320" as="sourcePoint" />
            <mxPoint x="990" y="270" as="targetPoint" />
          </mxGeometry>
        </mxCell>
        <mxCell id="XrFzkQ957bnb_zdma56I-2" value="Insert_Date" style="ellipse;whiteSpace=wrap;html=1;shadow=1;" parent="1" vertex="1">
          <mxGeometry x="2291" y="641.9700000000003" width="110" height="34" as="geometry" />
        </mxCell>
        <mxCell id="XrFzkQ957bnb_zdma56I-3" value="" style="endArrow=none;html=1;exitX=1;exitY=0.75;exitDx=0;exitDy=0;entryX=0;entryY=0.5;entryDx=0;entryDy=0;" parent="1" source="mOfdOxVqDoghl0tVKRiO-1" target="XrFzkQ957bnb_zdma56I-2" edge="1">
          <mxGeometry width="50" height="50" relative="1" as="geometry">
            <mxPoint x="2225.5" y="713.06" as="sourcePoint" />
            <mxPoint x="2264.5" y="651.06" as="targetPoint" />
          </mxGeometry>
        </mxCell>
        <mxCell id="XrFzkQ957bnb_zdma56I-4" value="Order_Date" style="ellipse;whiteSpace=wrap;html=1;shadow=1;" parent="1" vertex="1">
          <mxGeometry x="2257.5" y="1270" width="102" height="28" as="geometry" />
        </mxCell>
        <mxCell id="XrFzkQ957bnb_zdma56I-12" value="Pic_Name" style="ellipse;whiteSpace=wrap;html=1;shadow=1;" parent="1" vertex="1">
          <mxGeometry x="2032.5" y="706.0200000000002" width="101.5" height="33.9" as="geometry" />
        </mxCell>
        <mxCell id="XrFzkQ957bnb_zdma56I-13" value="" style="endArrow=none;html=1;exitX=0.5;exitY=0;exitDx=0;exitDy=0;entryX=0.25;entryY=1;entryDx=0;entryDy=0;" parent="1" source="XrFzkQ957bnb_zdma56I-12" target="mOfdOxVqDoghl0tVKRiO-1" edge="1">
          <mxGeometry width="50" height="50" relative="1" as="geometry">
            <mxPoint x="1995.5" y="813.06" as="sourcePoint" />
            <mxPoint x="2157" y="633" as="targetPoint" />
          </mxGeometry>
        </mxCell>
        <mxCell id="wAOh5u2bHxW-0nYntJ-o-1" value="Showcase" style="ellipse;whiteSpace=wrap;html=1;shadow=1;" parent="1" vertex="1">
          <mxGeometry x="2257.4999999999995" y="512.9099999999999" width="82.77" height="29.59" as="geometry" />
        </mxCell>
        <mxCell id="wAOh5u2bHxW-0nYntJ-o-2" value="" style="endArrow=none;html=1;entryX=0.5;entryY=1;entryDx=0;entryDy=0;exitX=0.858;exitY=0.018;exitDx=0;exitDy=0;exitPerimeter=0;" parent="1" source="mOfdOxVqDoghl0tVKRiO-1" target="wAOh5u2bHxW-0nYntJ-o-1" edge="1">
          <mxGeometry width="50" height="50" relative="1" as="geometry">
            <mxPoint x="2195.5" y="633.06" as="sourcePoint" />
            <mxPoint x="2245.5" y="583.0600000000001" as="targetPoint" />
          </mxGeometry>
        </mxCell>
        <mxCell id="wAOh5u2bHxW-0nYntJ-o-5" value="Blocked" style="ellipse;whiteSpace=wrap;html=1;shadow=1;" parent="1" vertex="1">
          <mxGeometry x="910" y="1004" width="90" height="32" as="geometry" />
        </mxCell>
        <mxCell id="wAOh5u2bHxW-0nYntJ-o-6" value="" style="endArrow=none;html=1;entryX=0.5;entryY=1;entryDx=0;entryDy=0;exitX=1;exitY=0;exitDx=0;exitDy=0;" parent="1" source="mOfdOxVqDoghl0tVKRiO-15" target="wAOh5u2bHxW-0nYntJ-o-5" edge="1">
          <mxGeometry width="50" height="50" relative="1" as="geometry">
            <mxPoint x="888" y="1061" as="sourcePoint" />
            <mxPoint x="920" y="1030" as="targetPoint" />
          </mxGeometry>
        </mxCell>
        <mxCell id="hEqI_E-h3wd5EMZh7YxB-1" value="Category" style="ellipse;whiteSpace=wrap;html=1;shadow=1;" parent="1" vertex="1">
          <mxGeometry x="2277.77" y="691.8299999999999" width="86" height="29.32" as="geometry" />
        </mxCell>
        <mxCell id="hEqI_E-h3wd5EMZh7YxB-2" value="" style="endArrow=none;html=1;entryX=0;entryY=0;entryDx=0;entryDy=0;exitX=1;exitY=1;exitDx=0;exitDy=0;" parent="1" source="mOfdOxVqDoghl0tVKRiO-1" target="hEqI_E-h3wd5EMZh7YxB-1" edge="1">
          <mxGeometry width="50" height="50" relative="1" as="geometry">
            <mxPoint x="2225.5" y="773.06" as="sourcePoint" />
            <mxPoint x="2275.5" y="723.06" as="targetPoint" />
          </mxGeometry>
        </mxCell>
        <mxCell id="ARcKCZJJov3iMHx4yaQP-2" value="Opening_Time" style="ellipse;whiteSpace=wrap;html=1;shadow=1;" parent="1" vertex="1">
          <mxGeometry x="1646.75" y="194.73000000000002" width="95.5" height="31.55" as="geometry" />
        </mxCell>
        <mxCell id="ARcKCZJJov3iMHx4yaQP-3" value="Closing_Time" style="ellipse;whiteSpace=wrap;html=1;shadow=1;" parent="1" vertex="1">
          <mxGeometry x="1602.25" y="289.8299999999999" width="95" height="29.13" as="geometry" />
        </mxCell>
        <mxCell id="ARcKCZJJov3iMHx4yaQP-4" value="" style="endArrow=none;html=1;entryX=0;entryY=0.5;entryDx=0;entryDy=0;exitX=1;exitY=0;exitDx=0;exitDy=0;" parent="1" source="mOfdOxVqDoghl0tVKRiO-93" target="ARcKCZJJov3iMHx4yaQP-2" edge="1">
          <mxGeometry width="50" height="50" relative="1" as="geometry">
            <mxPoint x="1620" y="280" as="sourcePoint" />
            <mxPoint x="1670" y="230" as="targetPoint" />
          </mxGeometry>
        </mxCell>
        <mxCell id="ARcKCZJJov3iMHx4yaQP-5" value="" style="endArrow=none;html=1;exitX=1;exitY=1;exitDx=0;exitDy=0;entryX=0.5;entryY=0;entryDx=0;entryDy=0;" parent="1" source="mOfdOxVqDoghl0tVKRiO-93" target="ARcKCZJJov3iMHx4yaQP-3" edge="1">
          <mxGeometry width="50" height="50" relative="1" as="geometry">
            <mxPoint x="1680" y="390" as="sourcePoint" />
            <mxPoint x="1730" y="340" as="targetPoint" />
          </mxGeometry>
        </mxCell>
        <mxCell id="D9wtWctI_J-qQWphaY6E-1" value="Deleted" style="ellipse;whiteSpace=wrap;html=1;shadow=1;" parent="1" vertex="1">
          <mxGeometry x="80" y="698.92" width="90" height="31" as="geometry" />
        </mxCell>
        <mxCell id="D9wtWctI_J-qQWphaY6E-2" value="" style="endArrow=none;html=1;entryX=0.25;entryY=1;entryDx=0;entryDy=0;exitX=1;exitY=0;exitDx=0;exitDy=0;" parent="1" source="D9wtWctI_J-qQWphaY6E-1" target="7vURNP84gYrgIZNCSmpS-34" edge="1">
          <mxGeometry width="50" height="50" relative="1" as="geometry">
            <mxPoint x="120" y="830" as="sourcePoint" />
            <mxPoint x="170" y="780" as="targetPoint" />
          </mxGeometry>
        </mxCell>
        <mxCell id="D9wtWctI_J-qQWphaY6E-9" value="Deleted_Reason" style="ellipse;whiteSpace=wrap;html=1;shadow=1;" parent="1" vertex="1">
          <mxGeometry x="1621" y="781.8200000000002" width="124.25" height="37.9" as="geometry" />
        </mxCell>
        <mxCell id="D9wtWctI_J-qQWphaY6E-10" value="" style="endArrow=none;html=1;exitX=0;exitY=1;exitDx=0;exitDy=0;shadow=0;" parent="1" source="D9wtWctI_J-qQWphaY6E-9" target="mOfdOxVqDoghl0tVKRiO-55" edge="1">
          <mxGeometry width="50" height="50" relative="1" as="geometry">
            <mxPoint x="2020.25" y="948.4200000000001" as="sourcePoint" />
            <mxPoint x="1895" y="903.2" as="targetPoint" />
          </mxGeometry>
        </mxCell>
        <mxCell id="xBFPVh3Kzn-VsAPXU1Ro-1" value="Deleted" style="ellipse;whiteSpace=wrap;html=1;shadow=1;" parent="1" vertex="1">
          <mxGeometry x="1628" y="879.4399999999999" width="80" height="38.86" as="geometry" />
        </mxCell>
        <mxCell id="xBFPVh3Kzn-VsAPXU1Ro-2" value="" style="endArrow=none;html=1;exitX=0;exitY=0;exitDx=0;exitDy=0;entryX=0.75;entryY=1;entryDx=0;entryDy=0;" parent="1" source="xBFPVh3Kzn-VsAPXU1Ro-1" target="mOfdOxVqDoghl0tVKRiO-55" edge="1">
          <mxGeometry width="50" height="50" relative="1" as="geometry">
            <mxPoint x="1968" y="1072.2" as="sourcePoint" />
            <mxPoint x="2018" y="1022.2" as="targetPoint" />
          </mxGeometry>
        </mxCell>
        <mxCell id="xBFPVh3Kzn-VsAPXU1Ro-6" value="Deleted" style="ellipse;whiteSpace=wrap;html=1;shadow=1;" parent="1" vertex="1">
          <mxGeometry x="2291" y="602.97" width="93" height="24.81" as="geometry" />
        </mxCell>
        <mxCell id="xBFPVh3Kzn-VsAPXU1Ro-7" value="" style="endArrow=none;html=1;exitX=1;exitY=0.25;exitDx=0;exitDy=0;entryX=0;entryY=0.5;entryDx=0;entryDy=0;" parent="1" source="mOfdOxVqDoghl0tVKRiO-1" target="xBFPVh3Kzn-VsAPXU1Ro-6" edge="1">
          <mxGeometry width="50" height="50" relative="1" as="geometry">
            <mxPoint x="2217" y="636.97" as="sourcePoint" />
            <mxPoint x="2275.499999999989" y="676.4300000000003" as="targetPoint" />
          </mxGeometry>
        </mxCell>
        <mxCell id="pAP4_yveE0BskdrrooYN-1" value="SELL" style="rhombus;whiteSpace=wrap;html=1;shadow=1;aspect=fixed;" parent="1" vertex="1">
          <mxGeometry x="2099.5" y="188.19000000000003" width="115" height="115.01" as="geometry" />
        </mxCell>
        <mxCell id="pAP4_yveE0BskdrrooYN-4" value="" style="html=1;rounded=0;align=left;exitX=1;exitY=0.5;exitDx=0;exitDy=0;endArrow=none;endFill=0;entryX=0;entryY=0.5;entryDx=0;entryDy=0;" parent="1" source="mOfdOxVqDoghl0tVKRiO-93" target="pAP4_yveE0BskdrrooYN-1" edge="1">
          <mxGeometry relative="1" as="geometry">
            <mxPoint x="1742.25" y="239.99999999999997" as="sourcePoint" />
            <mxPoint x="1850" y="440" as="targetPoint" />
            <Array as="points" />
          </mxGeometry>
        </mxCell>
        <mxCell id="pAP4_yveE0BskdrrooYN-5" value="1&amp;nbsp;&amp;nbsp;" style="resizable=0;html=1;align=right;verticalAlign=bottom;" parent="pAP4_yveE0BskdrrooYN-4" connectable="0" vertex="1">
          <mxGeometry x="1" relative="1" as="geometry" />
        </mxCell>
        <mxCell id="pAP4_yveE0BskdrrooYN-7" value="" style="shape=link;html=1;rounded=0;align=left;entryX=0.5;entryY=1;entryDx=0;entryDy=0;exitX=0.5;exitY=0;exitDx=0;exitDy=0;" parent="1" source="mOfdOxVqDoghl0tVKRiO-1" target="pAP4_yveE0BskdrrooYN-1" edge="1">
          <mxGeometry relative="1" as="geometry">
            <mxPoint x="1920" y="340" as="sourcePoint" />
            <mxPoint x="1744.63" y="604.3200000000002" as="targetPoint" />
            <Array as="points" />
          </mxGeometry>
        </mxCell>
        <mxCell id="pAP4_yveE0BskdrrooYN-8" value="N&amp;nbsp;&amp;nbsp;" style="resizable=0;html=1;align=right;verticalAlign=top;" parent="pAP4_yveE0BskdrrooYN-7" connectable="0" vertex="1">
          <mxGeometry x="1" relative="1" as="geometry" />
        </mxCell>
        <mxCell id="pAP4_yveE0BskdrrooYN-9" value="" style="shape=link;html=1;rounded=0;exitX=1;exitY=0.5;exitDx=0;exitDy=0;entryX=0;entryY=0.5;entryDx=0;entryDy=0;" parent="1" source="7vURNP84gYrgIZNCSmpS-65" target="z-NwZpaRfGPs4gkHxWXv-78" edge="1">
          <mxGeometry relative="1" as="geometry">
            <mxPoint x="1142.4999999999998" y="280.4399999999998" as="sourcePoint" />
            <mxPoint x="975.8600000000001" y="280.4399999999998" as="targetPoint" />
            <Array as="points" />
          </mxGeometry>
        </mxCell>
        <mxCell id="pAP4_yveE0BskdrrooYN-10" value="1" style="resizable=0;html=1;align=right;verticalAlign=bottom;horizontal=1;" parent="pAP4_yveE0BskdrrooYN-9" connectable="0" vertex="1">
          <mxGeometry x="1" relative="1" as="geometry" />
        </mxCell>
        <mxCell id="pAP4_yveE0BskdrrooYN-27" value="Slot" style="ellipse;whiteSpace=wrap;html=1;shadow=1;" parent="1" vertex="1">
          <mxGeometry x="1404" y="260.69999999999993" width="95" height="29.13" as="geometry" />
        </mxCell>
        <mxCell id="pAP4_yveE0BskdrrooYN-28" value="" style="endArrow=none;html=1;exitX=0;exitY=0.75;exitDx=0;exitDy=0;" parent="1" source="mOfdOxVqDoghl0tVKRiO-93" target="pAP4_yveE0BskdrrooYN-27" edge="1">
          <mxGeometry width="50" height="50" relative="1" as="geometry">
            <mxPoint x="1635" y="274.03999999999996" as="sourcePoint" />
            <mxPoint x="1653.4500448898839" y="289.4497502303162" as="targetPoint" />
          </mxGeometry>
        </mxCell>
        <mxCell id="gDiWdObR12Vtj-IBZLCE-10" value="Status" style="ellipse;whiteSpace=wrap;html=1;shadow=1;" parent="1" vertex="1">
          <mxGeometry x="1977" y="1329.25" width="100" height="30" as="geometry" />
        </mxCell>
        <mxCell id="gDiWdObR12Vtj-IBZLCE-13" value="" style="endArrow=none;html=1;entryX=1;entryY=0;entryDx=0;entryDy=0;exitX=0;exitY=1;exitDx=0;exitDy=0;" parent="1" source="vNirEB5KmImqvTxVqFge-29" target="gDiWdObR12Vtj-IBZLCE-10" edge="1">
          <mxGeometry width="50" height="50" relative="1" as="geometry">
            <mxPoint x="2107.5099999999998" y="1327.6349999999998" as="sourcePoint" />
            <mxPoint x="2449" y="1219.25" as="targetPoint" />
          </mxGeometry>
        </mxCell>
        <mxCell id="UZRTOB7L_TyUyEEr05dN-1" value="Sell_Date" style="ellipse;whiteSpace=wrap;html=1;shadow=1;" parent="1" vertex="1">
          <mxGeometry x="2020" y="1230" width="102" height="28" as="geometry" />
        </mxCell>
        <mxCell id="UZRTOB7L_TyUyEEr05dN-2" value="" style="endArrow=none;html=1;exitX=0.5;exitY=1;exitDx=0;exitDy=0;entryX=0;entryY=0;entryDx=0;entryDy=0;" parent="1" source="UZRTOB7L_TyUyEEr05dN-1" target="vNirEB5KmImqvTxVqFge-29" edge="1">
          <mxGeometry width="50" height="50" relative="1" as="geometry">
            <mxPoint x="2195.25" y="1297.5" as="sourcePoint" />
            <mxPoint x="2122.066230567755" y="1293.1837694322448" as="targetPoint" />
          </mxGeometry>
        </mxCell>
        <mxCell id="UZRTOB7L_TyUyEEr05dN-3" value="Price_tot" style="ellipse;whiteSpace=wrap;html=1;shadow=1;" parent="1" vertex="1">
          <mxGeometry x="2054" y="1373.75" width="102" height="28" as="geometry" />
        </mxCell>
        <mxCell id="UZRTOB7L_TyUyEEr05dN-4" value="" style="endArrow=none;html=1;exitX=0.5;exitY=0;exitDx=0;exitDy=0;entryX=0.25;entryY=1;entryDx=0;entryDy=0;" parent="1" source="UZRTOB7L_TyUyEEr05dN-3" target="vNirEB5KmImqvTxVqFge-29" edge="1">
          <mxGeometry width="50" height="50" relative="1" as="geometry">
            <mxPoint x="2085.5624458405246" y="1264.6494949366147" as="sourcePoint" />
            <mxPoint x="2127.7499999999995" y="1345" as="targetPoint" />
          </mxGeometry>
        </mxCell>
        <mxCell id="UZRTOB7L_TyUyEEr05dN-9" value="Deleted" style="ellipse;whiteSpace=wrap;html=1;shadow=1;" parent="1" vertex="1">
          <mxGeometry x="2176.5" y="1369.25" width="90" height="31" as="geometry" />
        </mxCell>
        <mxCell id="UZRTOB7L_TyUyEEr05dN-10" value="" style="endArrow=none;html=1;exitX=0.5;exitY=1;exitDx=0;exitDy=0;entryX=0;entryY=0;entryDx=0;entryDy=0;" parent="1" source="vNirEB5KmImqvTxVqFge-29" target="UZRTOB7L_TyUyEEr05dN-9" edge="1">
          <mxGeometry width="50" height="50" relative="1" as="geometry">
            <mxPoint x="2185.2499999999995" y="1345" as="sourcePoint" />
            <mxPoint x="2166.5000000000005" y="1383.75" as="targetPoint" />
          </mxGeometry>
        </mxCell>
        <mxCell id="oN729ArxQUPiIeWah8Cz-29" value="" style="endArrow=none;html=1;rounded=0;exitX=0;exitY=0.5;exitDx=0;exitDy=0;entryX=1;entryY=0.5;entryDx=0;entryDy=0;" parent="1" source="mOfdOxVqDoghl0tVKRiO-1" target="vNirEB5KmImqvTxVqFge-3" edge="1">
          <mxGeometry relative="1" as="geometry">
            <mxPoint x="1667" y="702.9800000000001" as="sourcePoint" />
            <mxPoint x="1650" y="1076" as="targetPoint" />
            <Array as="points">
              <mxPoint x="1780" y="618" />
              <mxPoint x="1780" y="1076" />
            </Array>
          </mxGeometry>
        </mxCell>
        <mxCell id="oN729ArxQUPiIeWah8Cz-30" value="M" style="resizable=0;html=1;align=left;verticalAlign=bottom;" parent="oN729ArxQUPiIeWah8Cz-29" connectable="0" vertex="1">
          <mxGeometry x="1" relative="1" as="geometry" />
        </mxCell>
        <mxCell id="vu-MjebXKjD8oBa5Xa2o-1" value="Desired_Quantity" style="ellipse;whiteSpace=wrap;html=1;shadow=1;" parent="1" vertex="1">
          <mxGeometry x="1201.13" y="1004" width="120" height="36" as="geometry" />
        </mxCell>
        <mxCell id="vu-MjebXKjD8oBa5Xa2o-2" value="" style="endArrow=none;html=1;entryX=0.5;entryY=1;entryDx=0;entryDy=0;exitX=0;exitY=0;exitDx=0;exitDy=0;" parent="1" source="vNirEB5KmImqvTxVqFge-3" target="vu-MjebXKjD8oBa5Xa2o-1" edge="1">
          <mxGeometry width="50" height="50" relative="1" as="geometry">
            <mxPoint x="1365.88" y="1061" as="sourcePoint" />
            <mxPoint x="1391.13" y="1050" as="targetPoint" />
          </mxGeometry>
        </mxCell>
        <mxCell id="vu-MjebXKjD8oBa5Xa2o-12" value="Quantity" style="ellipse;whiteSpace=wrap;html=1;shadow=1;" parent="1" vertex="1">
          <mxGeometry x="2047" y="820.37" width="73.23" height="35.5" as="geometry" />
        </mxCell>
        <mxCell id="vu-MjebXKjD8oBa5Xa2o-14" value="Shipping_Address" style="ellipse;whiteSpace=wrap;html=1;shadow=1;" parent="1" vertex="1">
          <mxGeometry x="2234.25" y="1329.25" width="125.25" height="30" as="geometry" />
        </mxCell>
        <mxCell id="vu-MjebXKjD8oBa5Xa2o-15" value="" style="endArrow=none;html=1;exitX=0.75;exitY=1;exitDx=0;exitDy=0;entryX=0;entryY=0.5;entryDx=0;entryDy=0;" parent="1" source="vNirEB5KmImqvTxVqFge-29" target="vu-MjebXKjD8oBa5Xa2o-14" edge="1">
          <mxGeometry width="50" height="50" relative="1" as="geometry">
            <mxPoint x="2200.2" y="1331.8899999999999" as="sourcePoint" />
            <mxPoint x="2224.652654867241" y="1391.7462831858352" as="targetPoint" />
          </mxGeometry>
        </mxCell>
        <mxCell id="vu-MjebXKjD8oBa5Xa2o-17" value="" style="endArrow=none;html=1;exitX=0;exitY=0;exitDx=0;exitDy=0;entryX=1;entryY=1;entryDx=0;entryDy=0;" parent="1" source="vNirEB5KmImqvTxVqFge-40" target="vu-MjebXKjD8oBa5Xa2o-12" edge="1">
          <mxGeometry width="50" height="50" relative="1" as="geometry">
            <mxPoint x="1666" y="1510" as="sourcePoint" />
            <mxPoint x="1508" y="1520.0000000000002" as="targetPoint" />
          </mxGeometry>
        </mxCell>
        <mxCell id="vNirEB5KmImqvTxVqFge-3" value="IN_CART" style="rhombus;whiteSpace=wrap;html=1;shadow=1;" parent="1" vertex="1">
          <mxGeometry x="1269.13" y="1046" width="100" height="60" as="geometry" />
        </mxCell>
        <mxCell id="vNirEB5KmImqvTxVqFge-10" value="" style="endArrow=none;html=1;rounded=0;entryX=0;entryY=0.5;entryDx=0;entryDy=0;exitX=1;exitY=0.5;exitDx=0;exitDy=0;" parent="1" source="mOfdOxVqDoghl0tVKRiO-15" target="vNirEB5KmImqvTxVqFge-3" edge="1">
          <mxGeometry relative="1" as="geometry">
            <mxPoint x="1393.5" y="1076" as="sourcePoint" />
            <mxPoint x="1499" y="1075.66" as="targetPoint" />
          </mxGeometry>
        </mxCell>
        <mxCell id="vNirEB5KmImqvTxVqFge-11" value="N" style="resizable=0;html=1;align=right;verticalAlign=bottom;" parent="vNirEB5KmImqvTxVqFge-10" connectable="0" vertex="1">
          <mxGeometry x="1" relative="1" as="geometry" />
        </mxCell>
        <mxCell id="vNirEB5KmImqvTxVqFge-14" value="" style="endArrow=none;html=1;rounded=0;exitX=0;exitY=0.75;exitDx=0;exitDy=0;entryX=1;entryY=0.5;entryDx=0;entryDy=0;" parent="1" source="mOfdOxVqDoghl0tVKRiO-1" edge="1">
          <mxGeometry relative="1" as="geometry">
            <mxPoint x="2180" y="625.4700000000003" as="sourcePoint" />
            <mxPoint x="1369.13" y="1190" as="targetPoint" />
            <Array as="points">
              <mxPoint x="1880" y="625" />
              <mxPoint x="1880" y="1190" />
            </Array>
          </mxGeometry>
        </mxCell>
        <mxCell id="vNirEB5KmImqvTxVqFge-15" value="M" style="resizable=0;html=1;align=left;verticalAlign=bottom;" parent="vNirEB5KmImqvTxVqFge-14" connectable="0" vertex="1">
          <mxGeometry x="1" relative="1" as="geometry" />
        </mxCell>
        <mxCell id="vNirEB5KmImqvTxVqFge-20" value="IN_WISHLIST" style="rhombus;whiteSpace=wrap;html=1;shadow=1;" parent="1" vertex="1">
          <mxGeometry x="1269.13" y="1160" width="100" height="60" as="geometry" />
        </mxCell>
        <mxCell id="vNirEB5KmImqvTxVqFge-25" value="" style="endArrow=none;html=1;rounded=0;entryX=0;entryY=0.5;entryDx=0;entryDy=0;exitX=0.5;exitY=1;exitDx=0;exitDy=0;" parent="1" source="mOfdOxVqDoghl0tVKRiO-15" target="vNirEB5KmImqvTxVqFge-20" edge="1">
          <mxGeometry relative="1" as="geometry">
            <mxPoint x="1393.5" y="1234.21" as="sourcePoint" />
            <mxPoint x="1499" y="1233.8700000000001" as="targetPoint" />
            <Array as="points">
              <mxPoint x="860" y="1190" />
            </Array>
          </mxGeometry>
        </mxCell>
        <mxCell id="vNirEB5KmImqvTxVqFge-26" value="N" style="resizable=0;html=1;align=right;verticalAlign=bottom;" parent="vNirEB5KmImqvTxVqFge-25" connectable="0" vertex="1">
          <mxGeometry x="1" relative="1" as="geometry" />
        </mxCell>
        <mxCell id="vNirEB5KmImqvTxVqFge-29" value="ORDERS" style="rounded=0;whiteSpace=wrap;html=1;shadow=1;" parent="1" vertex="1">
          <mxGeometry x="2102.5" y="1290.25" width="115" height="30" as="geometry" />
        </mxCell>
        <mxCell id="vNirEB5KmImqvTxVqFge-32" value="" style="endArrow=none;html=1;exitX=0;exitY=0.5;exitDx=0;exitDy=0;entryX=1;entryY=0;entryDx=0;entryDy=0;" parent="1" source="XrFzkQ957bnb_zdma56I-4" target="vNirEB5KmImqvTxVqFge-29" edge="1">
          <mxGeometry width="50" height="50" relative="1" as="geometry">
            <mxPoint x="2116.882206693421" y="1273.0609321420459" as="sourcePoint" />
            <mxPoint x="2141.25" y="1309.25" as="targetPoint" />
          </mxGeometry>
        </mxCell>
        <mxCell id="vNirEB5KmImqvTxVqFge-33" value="MAKES" style="rhombus;whiteSpace=wrap;html=1;shadow=1;" parent="1" vertex="1">
          <mxGeometry x="1270" y="1275" width="100" height="60" as="geometry" />
        </mxCell>
        <mxCell id="vNirEB5KmImqvTxVqFge-36" value="" style="endArrow=none;html=1;rounded=0;entryX=0;entryY=0.5;entryDx=0;entryDy=0;exitX=0.25;exitY=1;exitDx=0;exitDy=0;" parent="1" source="mOfdOxVqDoghl0tVKRiO-15" target="vNirEB5KmImqvTxVqFge-33" edge="1">
          <mxGeometry relative="1" as="geometry">
            <mxPoint x="770" y="1360" as="sourcePoint" />
            <mxPoint x="930" y="1360" as="targetPoint" />
            <Array as="points">
              <mxPoint x="831" y="1305" />
            </Array>
          </mxGeometry>
        </mxCell>
        <mxCell id="vNirEB5KmImqvTxVqFge-37" value="1" style="resizable=0;html=1;align=right;verticalAlign=bottom;" parent="vNirEB5KmImqvTxVqFge-36" connectable="0" vertex="1">
          <mxGeometry x="1" relative="1" as="geometry" />
        </mxCell>
        <mxCell id="vNirEB5KmImqvTxVqFge-38" value="" style="endArrow=none;html=1;rounded=0;entryX=1;entryY=0.5;entryDx=0;entryDy=0;exitX=0;exitY=0.5;exitDx=0;exitDy=0;shape=link;" parent="1" source="vNirEB5KmImqvTxVqFge-29" target="vNirEB5KmImqvTxVqFge-33" edge="1">
          <mxGeometry relative="1" as="geometry">
            <mxPoint x="970" y="1320" as="sourcePoint" />
            <mxPoint x="1130" y="1320" as="targetPoint" />
          </mxGeometry>
        </mxCell>
        <mxCell id="vNirEB5KmImqvTxVqFge-39" value="N" style="resizable=0;html=1;align=left;verticalAlign=bottom;" parent="vNirEB5KmImqvTxVqFge-38" connectable="0" vertex="1">
          <mxGeometry x="1" relative="1" as="geometry" />
        </mxCell>
        <mxCell id="vNirEB5KmImqvTxVqFge-40" value="COMPOSED" style="rhombus;whiteSpace=wrap;html=1;shadow=1;" parent="1" vertex="1">
          <mxGeometry x="2107" y="879.44" width="100" height="60" as="geometry" />
        </mxCell>
        <mxCell id="vNirEB5KmImqvTxVqFge-41" value="" style="shape=link;html=1;rounded=0;exitX=0.5;exitY=0;exitDx=0;exitDy=0;entryX=0.5;entryY=1;entryDx=0;entryDy=0;" parent="1" source="vNirEB5KmImqvTxVqFge-29" target="vNirEB5KmImqvTxVqFge-40" edge="1">
          <mxGeometry relative="1" as="geometry">
            <mxPoint x="1237" y="1380" as="sourcePoint" />
            <mxPoint x="1397" y="1380" as="targetPoint" />
            <Array as="points" />
          </mxGeometry>
        </mxCell>
        <mxCell id="vNirEB5KmImqvTxVqFge-42" value="N" style="resizable=0;html=1;align=right;verticalAlign=bottom;" parent="vNirEB5KmImqvTxVqFge-41" connectable="0" vertex="1">
          <mxGeometry x="1" relative="1" as="geometry" />
        </mxCell>
        <mxCell id="vNirEB5KmImqvTxVqFge-46" value="" style="endArrow=none;html=1;rounded=0;exitX=0.5;exitY=1;exitDx=0;exitDy=0;entryX=0.5;entryY=0;entryDx=0;entryDy=0;" parent="1" source="mOfdOxVqDoghl0tVKRiO-1" target="vNirEB5KmImqvTxVqFge-40" edge="1">
          <mxGeometry relative="1" as="geometry">
            <mxPoint x="1690" y="1180" as="sourcePoint" />
            <mxPoint x="1850" y="1180" as="targetPoint" />
          </mxGeometry>
        </mxCell>
        <mxCell id="vNirEB5KmImqvTxVqFge-47" value="M&amp;nbsp;" style="resizable=0;html=1;align=right;verticalAlign=bottom;" parent="vNirEB5KmImqvTxVqFge-46" connectable="0" vertex="1">
          <mxGeometry x="1" relative="1" as="geometry" />
        </mxCell>
        <mxCell id="vNirEB5KmImqvTxVqFge-49" value="&lt;u&gt;ID&lt;/u&gt;" style="ellipse;whiteSpace=wrap;html=1;shadow=1;" parent="1" vertex="1">
          <mxGeometry x="2182.5" y="1220" width="84" height="27.86" as="geometry" />
        </mxCell>
        <mxCell id="vNirEB5KmImqvTxVqFge-50" value="" style="endArrow=none;html=1;exitX=0.5;exitY=1;exitDx=0;exitDy=0;entryX=0.75;entryY=0;entryDx=0;entryDy=0;" parent="1" source="vNirEB5KmImqvTxVqFge-49" target="vNirEB5KmImqvTxVqFge-29" edge="1">
          <mxGeometry width="50" height="50" relative="1" as="geometry">
            <mxPoint x="2282" y="1277.2500000000002" as="sourcePoint" />
            <mxPoint x="2198.75" y="1309.2499999999998" as="targetPoint" />
          </mxGeometry>
        </mxCell>
      </root>
    </mxGraphModel>
  </diagram>
</mxfile>
